<svg viewBox="0 0 17 20" fill="none" xmlns="http://www.w3.org/2000/svg">
<g id="icon-regenerate">
<g id="Group">
<path id="Vector" d="M14.4262 5.57379C12.8301 3.97769 10.7079 3.09867 8.45066 3.09867H7.21172L9.20027 1.10523L8.09231 0L4.21941 3.88238L8.04176 7.76863L9.1575 6.67125L7.18285 4.66359H8.45066C12.2475 4.66359 15.3364 7.7525 15.3364 11.5493C15.3364 15.3462 12.2475 18.4351 8.45066 18.4351C4.65387 18.4351 1.56492 15.3461 1.56492 11.5492V10.7667L0 10.7669V11.5493C0 13.8066 0.879024 15.9287 2.47516 17.5248C4.07125 19.121 6.19344 20 8.45066 20C10.7079 20 12.8301 19.121 14.4262 17.5248C16.0223 15.9287 16.9013 13.8066 16.9013 11.5493C16.9013 9.29211 16.0223 7.16992 14.4262 5.57379Z" fill="#1C1C1C"/>
</g>
</g>
</svg>
