<svg viewBox="0 0 34 36" fill="none" xmlns="http://www.w3.org/2000/svg">
<path id="Vector" d="M28.7724 10.3962C28.633 10.3962 28.5146 10.3675 28.417 10.3103C28.3194 10.253 28.2427 10.1527 28.187 10.0095L26.9742 7.0883L23.9213 5.7136C23.7819 5.65632 23.6843 5.57757 23.6285 5.47733C23.5728 5.37709 23.5449 5.25537 23.5449 5.11217C23.5449 4.96897 23.5728 4.84726 23.6285 4.74702C23.6843 4.64678 23.7819 4.56802 23.9213 4.51074L26.9742 3.179L28.187 0.386635C28.2427 0.243437 28.3194 0.143198 28.417 0.0859189C28.5146 0.0286396 28.633 0 28.7724 0C28.9118 0 29.0303 0.0286396 29.1279 0.0859189C29.2255 0.143198 29.3022 0.243437 29.3579 0.386635L30.5707 3.179L33.6236 4.51074C33.763 4.56802 33.8606 4.64678 33.9164 4.74702C33.9721 4.84726 34 4.96897 34 5.11217C34 5.25537 33.9721 5.37709 33.9164 5.47733C33.8606 5.57757 33.763 5.65632 33.6236 5.7136L30.5707 7.0883L29.3579 10.0095C29.3022 10.1527 29.2255 10.253 29.1279 10.3103C29.0303 10.3675 28.9118 10.3962 28.7724 10.3962ZM28.7724 36C28.6609 36 28.5494 35.9714 28.4379 35.9141C28.3264 35.8568 28.2427 35.7566 28.187 35.6134L26.9742 32.821L23.9631 31.4893C23.8237 31.432 23.7261 31.3532 23.6704 31.253C23.6146 31.1527 23.5867 31.031 23.5867 30.8878C23.5867 30.7446 23.6146 30.6229 23.6704 30.5227C23.7261 30.4224 23.8237 30.3437 23.9631 30.2864L26.9742 28.9547L28.187 25.9905C28.2427 25.8473 28.3194 25.747 28.417 25.6897C28.5146 25.6325 28.633 25.6038 28.7724 25.6038C28.9118 25.6038 29.0303 25.6325 29.1279 25.6897C29.2255 25.747 29.3022 25.8473 29.3579 25.9905L30.5707 28.9547L33.5818 30.2864C33.7212 30.3437 33.8188 30.4224 33.8745 30.5227C33.9303 30.6229 33.9582 30.7446 33.9582 30.8878C33.9582 31.031 33.9303 31.1527 33.8745 31.253C33.8188 31.3532 33.7212 31.432 33.5818 31.4893L30.5707 32.821L29.3579 35.6134C29.3022 35.7566 29.2185 35.8568 29.107 35.9141C28.9955 35.9714 28.884 36 28.7724 36ZM10.4133 28.568C10.1902 28.568 9.97417 28.5036 9.76507 28.3747C9.55597 28.2458 9.39565 28.0668 9.28413 27.8377L6.56581 21.8663L0.710947 19.1599C0.487905 19.0453 0.313653 18.8807 0.188192 18.6659C0.0627306 18.4511 0 18.2291 0 18C0 17.7709 0.0627306 17.5489 0.188192 17.3341C0.313653 17.1193 0.487905 16.9547 0.710947 16.8401L6.56581 14.1337L9.28413 8.20525C9.39565 7.94749 9.55597 7.75418 9.76507 7.6253C9.97417 7.49642 10.1902 7.43198 10.4133 7.43198C10.6363 7.43198 10.8524 7.49642 11.0615 7.6253C11.2706 7.75418 11.4309 7.93317 11.5424 8.16229L14.3026 14.1337L20.1156 16.8401C20.3665 16.9547 20.5547 17.1193 20.6802 17.3341C20.8057 17.5489 20.8684 17.7709 20.8684 18C20.8684 18.2291 20.8057 18.4511 20.6802 18.6659C20.5547 18.8807 20.3665 19.0453 20.1156 19.1599L14.3026 21.8663L11.5424 27.8377C11.4309 28.0955 11.2706 28.2816 11.0615 28.3962C10.8524 28.5107 10.6363 28.568 10.4133 28.568Z" fill="#1C1C1C"/>
</svg>
