<svg viewBox="0 0 19 20" fill="none" xmlns="http://www.w3.org/2000/svg">
<g id="icon-regenerate">
<g id="Group">
<path id="Vector" d="M15.9847 5.77566C15.9072 5.77566 15.8414 5.75975 15.7872 5.72792C15.733 5.6961 15.6904 5.64041 15.6594 5.56086L14.9857 3.93795L13.2896 3.17422C13.2122 3.1424 13.1579 3.09865 13.127 3.04296C13.096 2.98727 13.0805 2.91965 13.0805 2.8401C13.0805 2.76054 13.096 2.69292 13.127 2.63723C13.1579 2.58154 13.2122 2.53779 13.2896 2.50597L14.9857 1.76611L15.6594 0.214797C15.6904 0.135243 15.733 0.0795545 15.7872 0.0477327C15.8414 0.0159109 15.9072 0 15.9847 0C16.0621 0 16.128 0.0159109 16.1822 0.0477327C16.2364 0.0795545 16.279 0.135243 16.31 0.214797L16.9837 1.76611L18.6798 2.50597C18.7572 2.53779 18.8114 2.58154 18.8424 2.63723C18.8734 2.69292 18.8889 2.76054 18.8889 2.8401C18.8889 2.91965 18.8734 2.98727 18.8424 3.04296C18.8114 3.09865 18.7572 3.1424 18.6798 3.17422L16.9837 3.93795L16.31 5.56086C16.279 5.64041 16.2364 5.6961 16.1822 5.72792C16.128 5.75975 16.0621 5.77566 15.9847 5.77566ZM15.9847 20C15.9227 20 15.8608 19.9841 15.7988 19.9523C15.7369 19.9204 15.6904 19.8648 15.6594 19.7852L14.9857 18.2339L13.3128 17.494C13.2354 17.4622 13.1812 17.4185 13.1502 17.3628C13.1192 17.3071 13.1037 17.2395 13.1037 17.1599C13.1037 17.0803 13.1192 17.0127 13.1502 16.957C13.1812 16.9014 13.2354 16.8576 13.3128 16.8258L14.9857 16.0859L15.6594 14.4391C15.6904 14.3596 15.733 14.3039 15.7872 14.2721C15.8414 14.2403 15.9072 14.2243 15.9847 14.2243C16.0621 14.2243 16.128 14.2403 16.1822 14.2721C16.2364 14.3039 16.279 14.3596 16.31 14.4391L16.9837 16.0859L18.6566 16.8258C18.734 16.8576 18.7882 16.9014 18.8192 16.957C18.8502 17.0127 18.8657 17.0803 18.8657 17.1599C18.8657 17.2395 18.8502 17.3071 18.8192 17.3628C18.7882 17.4185 18.734 17.4622 18.6566 17.494L16.9837 18.2339L16.31 19.7852C16.279 19.8648 16.2325 19.9204 16.1706 19.9523C16.1086 19.9841 16.0466 20 15.9847 20ZM5.78516 15.8711C5.66125 15.8711 5.54121 15.8353 5.42504 15.7637C5.30887 15.6921 5.21981 15.5927 5.15785 15.4654L3.64767 12.148L0.394971 10.6444C0.271058 10.5807 0.174252 10.4893 0.104551 10.3699C0.0348504 10.2506 0 10.1273 0 10C0 9.87271 0.0348504 9.7494 0.104551 9.63007C0.174252 9.51074 0.271058 9.41925 0.394971 9.35561L3.64767 7.85203L5.15785 4.55847C5.21981 4.41527 5.30887 4.30788 5.42504 4.23628C5.54121 4.16468 5.66125 4.12888 5.78516 4.12888C5.90907 4.12888 6.02911 4.16468 6.14528 4.23628C6.26145 4.30788 6.35051 4.40732 6.41246 4.53461L7.94588 7.85203L11.1753 9.35561C11.3147 9.41925 11.4193 9.51074 11.489 9.63007C11.5587 9.7494 11.5935 9.87271 11.5935 10C11.5935 10.1273 11.5587 10.2506 11.489 10.3699C11.4193 10.4893 11.3147 10.5807 11.1753 10.6444L7.94588 12.148L6.41246 15.4654C6.35051 15.6086 6.26145 15.712 6.14528 15.7757C6.02911 15.8393 5.90907 15.8711 5.78516 15.8711Z" fill="white"/>
</g>
</g>
</svg>
