<svg viewBox="0 0 482 92" fill="none" xmlns="http://www.w3.org/2000/svg">
<circle cx="45.9436" cy="46.0536" r="45.9436" fill="#1C1C1C"/>
<path d="M60.7766 69.8372C58.323 64.9912 55.9747 60.358 53.5387 55.5448C50.7346 60.3253 47.9832 64.9912 45.1792 69.7881C44.9514 69.3788 44.7936 69.1004 44.6534 68.8058C39.6412 58.901 34.6115 48.9962 29.6344 39.075C29.2138 38.2564 28.7406 37.9617 27.7767 37.9781C23.6408 38.0272 19.5049 37.9945 15.3689 38.0108C14.6679 38.0108 14.2473 37.8471 13.8793 37.2414C12.3195 34.5237 10.6897 31.8551 9.0774 29.1538C8.9372 28.9246 8.83204 28.6954 8.67432 28.3843C9.05987 28.368 9.34027 28.3189 9.6382 28.3189C17.9802 28.3189 26.3221 28.3352 34.6641 28.3025C35.4002 28.3025 35.7507 28.5317 36.0661 29.1374C39.1155 35.2113 42.1999 41.2688 45.2668 47.3426C45.407 47.6209 45.5647 47.8993 45.775 48.2922C48.2461 44.1338 50.647 40.0737 53.0304 36.0299C54.4325 33.6724 55.8169 31.3149 57.2365 28.9737C57.4117 28.6954 57.8148 28.368 58.1303 28.368C61.7404 28.3352 65.3681 28.3516 68.9783 28.3516C69.066 28.3516 69.1536 28.4007 69.3288 28.4498C69.1536 28.7936 68.9958 29.1047 68.8206 29.4158C65.9465 34.3436 63.0548 39.2551 60.1457 44.1665C59.7952 44.7559 59.69 45.2307 60.0756 45.8528C60.5312 46.5732 60.8642 47.359 61.3023 48.2431C61.4951 47.9647 61.6528 47.7847 61.7755 47.5718C65.4032 41.4489 69.0484 35.3259 72.6586 29.1866C73.0266 28.5644 73.3947 28.3189 74.1833 28.3189C77.7234 28.368 81.281 28.3352 85.0489 28.3352C76.9523 42.202 68.9258 55.9213 60.7766 69.8372Z" fill="white"/>
<path d="M27.5483 69.8044C27.5483 60.7837 27.5483 51.9267 27.5483 42.8568C27.7762 43.2006 27.8988 43.3807 27.9865 43.5608C31.141 49.6346 34.2955 55.6921 37.3975 61.7823C37.6779 62.339 37.8356 63.0102 37.8531 63.6323C37.9057 65.4168 37.9057 67.2013 37.8531 68.9858C37.8531 69.2641 37.5202 69.7717 37.3274 69.7717C34.1028 69.8208 30.8781 69.8044 27.5483 69.8044Z" fill="white"/>
<path d="M53.8709 28.401C53.7833 28.6138 53.7307 28.7939 53.6431 28.9576C52.0132 31.7735 50.3834 34.6058 48.7185 37.4054C48.5433 37.7001 48.0525 37.9947 47.702 38.0111C46.2825 38.0766 44.8454 38.0602 43.4259 38.0275C43.1105 38.0111 42.6548 37.8146 42.5321 37.5854C40.9899 34.6549 39.5003 31.6917 37.9931 28.7284C37.9581 28.6466 37.9931 28.5483 37.9931 28.401C43.2682 28.401 48.5257 28.401 53.8709 28.401Z" fill="white"/>
<path d="M455.114 35.2568L466.59 34.3379V41.3061C468.229 39.111 470.251 37.3498 472.655 36.0225C475.114 34.6442 478.229 33.9551 482 33.9551V44.4455C480.033 44.4455 477.437 44.7774 474.213 45.441C471.043 46.0536 468.502 47.1511 466.59 48.7336V76.989L455.114 77.9078V35.2568Z" fill="#1C1C1C"/>
<path d="M429.111 78.4437C423.592 78.4437 419.329 76.4017 416.324 72.3178C413.373 68.234 411.897 62.7973 411.897 56.0079C411.897 49.2695 413.373 43.8838 416.324 39.851C419.275 35.8182 423.537 33.8018 429.111 33.8018C434.63 33.8018 438.892 35.8182 441.898 39.851C444.958 43.8838 446.488 49.2695 446.488 56.0079C446.488 62.7463 444.958 68.1829 441.898 72.3178C438.892 76.4017 434.63 78.4437 429.111 78.4437ZM429.111 70.4801C431.57 70.4801 433.155 69.0763 433.865 66.2686C434.575 63.4609 434.931 60.0152 434.931 55.9313C434.931 51.8474 434.575 48.4016 433.865 45.594C433.155 42.7863 431.57 41.3825 429.111 41.3825C426.652 41.3825 425.094 42.7097 424.439 45.3642C423.783 48.0188 423.455 51.2603 423.455 55.089C423.455 59.7854 423.783 63.5375 424.439 66.3452C425.094 69.1018 426.652 70.4801 429.111 70.4801Z" fill="#1C1C1C"/>
<path d="M390.079 78.4437C385.544 78.4437 381.882 77.4993 379.095 75.6105C376.309 73.6706 374.505 70.9906 373.686 67.5703L382.62 64.8137C382.839 65.7836 383.248 66.6515 383.85 67.4172C385.106 69.1018 386.937 69.9441 389.341 69.9441C390.708 69.9441 392.019 69.6633 393.276 69.1018C394.533 68.5403 395.161 67.6724 395.161 66.4983C395.161 64.9158 393.986 63.6907 391.637 62.8228L381.964 59.1473C379.396 58.1264 377.429 56.5949 376.063 54.553C374.696 52.511 374.013 50.0097 374.013 47.0488C374.013 44.2922 374.724 41.9185 376.145 39.9276C377.62 37.9367 379.533 36.4308 381.882 35.4098C384.287 34.3378 386.855 33.8018 389.587 33.8018C393.03 33.8018 396.199 34.7462 399.096 36.6349C401.992 38.4727 403.932 40.9996 404.915 44.2157L395.407 46.9723C395.189 46.1044 394.806 45.2366 394.26 44.3688C393.057 42.6331 391.527 41.7653 389.669 41.7653C388.303 41.7653 387.128 42.0716 386.145 42.6842C385.161 43.2457 384.669 44.088 384.669 45.2111C384.669 46.5384 386.008 47.7635 388.686 48.8866L396.883 52.0261C399.779 53.3023 402.047 54.9103 403.686 56.8502C405.325 58.79 406.145 61.3935 406.145 64.6606C406.145 67.6214 405.38 70.1483 403.85 72.2413C402.32 74.2832 400.325 75.8402 397.866 76.9122C395.407 77.9332 392.811 78.4437 390.079 78.4437Z" fill="#1C1C1C"/>
<path d="M331.304 35.2566L342.78 34.3378V39.851C345.13 37.9112 347.425 36.4308 349.665 35.4098C351.96 34.3378 354.064 33.8018 355.977 33.8018C358.873 33.8018 361.223 34.7972 363.026 36.7881C364.884 38.7279 365.813 41.3569 365.813 44.6751V76.9888L354.337 77.9077V48.7334C354.337 44.9048 352.944 42.9905 350.157 42.9905C349.228 42.9905 348.19 43.2457 347.042 43.7562C345.949 44.2667 344.528 45.0069 342.78 45.9768V76.9888L331.304 77.9077V35.2566Z" fill="#1C1C1C"/>
<path d="M306.573 78.4437C301.108 78.4437 296.928 76.4272 294.032 72.3944C291.136 68.3105 289.688 62.8994 289.688 56.161C289.688 49.3205 291.163 43.8838 294.114 39.851C297.065 35.8182 301.354 33.8018 306.983 33.8018C312.338 33.8018 316.436 35.8182 319.278 39.851C322.12 43.8838 323.54 49.3205 323.54 56.161C323.54 56.5694 323.458 56.8757 323.294 57.0799C323.131 57.233 323.049 57.3351 323.049 57.3862H301.163C301.163 60.7043 301.628 63.7417 302.557 66.4983C303.485 69.2039 304.906 70.5567 306.819 70.5567C308.95 70.5567 310.535 69.4081 311.573 67.1109C312.611 64.8137 313.158 63.6141 313.212 63.512L321.901 66.5749C320.753 70.2504 318.923 73.1601 316.409 75.3042C313.895 77.3972 310.617 78.4437 306.573 78.4437ZM312.229 51.1838C312.229 48.1209 311.792 45.6961 310.917 43.9094C310.043 42.1227 308.677 41.2293 306.819 41.2293C305.89 41.2293 304.988 41.6632 304.114 42.5311C303.24 43.3989 302.529 44.5985 301.983 46.13C301.436 47.6614 301.163 49.346 301.163 51.1838H312.229Z" fill="#1C1C1C"/>
<path d="M277.283 78.2907C273.567 78.2907 270.425 77.4229 267.856 75.6872C265.288 73.9005 264.004 70.761 264.004 66.2688V42.4547H257.61L258.102 34.3379H264.332L265.479 24.9961L275.479 23.6943V34.3379H284.988L284.496 42.4547H275.561V66.1922C275.561 67.7237 275.971 68.8212 276.791 69.4848C277.611 70.1485 278.813 70.4803 280.398 70.4803C281.272 70.4803 282.747 70.3271 284.824 70.0208V77.4484C284.605 77.4994 283.731 77.6526 282.201 77.9078C280.725 78.1631 279.086 78.2907 277.283 78.2907Z" fill="#1C1C1C"/>
<path d="M239.273 28.8247V17.7217L250.749 16.9559V28.3653L239.273 28.8247ZM239.191 77.9078V35.2568L250.667 34.3379V76.9889L239.191 77.9078Z" fill="#1C1C1C"/>
<path d="M221.978 78.4439L212.634 57.0035L208.863 61.6745V77.4485H197.388V21.3972L208.863 20.0189V48.504L220.585 34.338H233.044L220.093 49.8823L232.142 75.2279L221.978 78.4439Z" fill="#1C1C1C"/>
<path d="M175.118 28.8247V17.7217L186.593 16.9559V28.3653L175.118 28.8247ZM175.036 77.9078V35.2568L186.511 34.3379V76.9889L175.036 77.9078Z" fill="#1C1C1C"/>
<path d="M119.345 77.4485L106.804 20.4784L119.919 20.0189L126.395 54.4001L133.362 20.4784L143.198 20.0189L149.674 54.7829L157.461 20.4784L168.526 20.0189L155.329 77.4485H143.444L136.968 42.3782L130.329 77.4485H119.345Z" fill="#1C1C1C"/>
</svg>
