<svg viewBox="0 0 31 30" fill="none" xmlns="http://www.w3.org/2000/svg">
<g id="Avatar">
<rect x="0.0400391" width="30" height="30" rx="15" fill="#1C1C1C"/>
<g id="Group">
<path id="Vector" d="M18.582 22.2726C17.9047 20.8408 17.2565 19.4717 16.5841 18.0495C15.8101 19.4621 15.0506 20.8408 14.2766 22.2581C14.2137 22.1372 14.1702 22.055 14.1315 21.9679C12.748 19.0412 11.3596 16.1145 9.9858 13.183C9.8697 12.9412 9.73909 12.8541 9.47303 12.8589C8.33139 12.8735 7.18975 12.8638 6.04811 12.8686C5.85461 12.8686 5.73851 12.8202 5.63692 12.6413C5.20639 11.8382 4.75651 11.0497 4.31146 10.2515C4.27276 10.1838 4.24373 10.1161 4.2002 10.0242C4.30662 10.0193 4.38402 10.0048 4.46626 10.0048C6.76889 10.0048 9.07152 10.0097 11.3742 10C11.5773 10 11.6741 10.0677 11.7611 10.2467C12.6029 12.0414 13.4543 13.8313 14.3008 15.626C14.3395 15.7082 14.383 15.7904 14.4411 15.9065C15.1232 14.6778 15.7859 13.4781 16.4438 12.2833C16.8308 11.5867 17.213 10.8901 17.6048 10.1983C17.6532 10.1161 17.7644 10.0194 17.8515 10.0194C18.848 10.0097 19.8494 10.0145 20.8459 10.0145C20.8701 10.0145 20.8943 10.029 20.9426 10.0435C20.8943 10.1451 20.8507 10.237 20.8024 10.3289C20.009 11.785 19.2108 13.2363 18.4078 14.6875C18.3111 14.8616 18.282 15.0019 18.3885 15.1858C18.5142 15.3986 18.6062 15.6308 18.7271 15.892C18.7803 15.8098 18.8238 15.7566 18.8577 15.6937C19.8591 13.8845 20.8652 12.0753 21.8618 10.2612C21.9634 10.0774 22.0649 10.0048 22.2826 10.0048C23.2598 10.0194 24.2418 10.0097 25.2819 10.0097C23.0469 14.107 20.8314 18.1608 18.582 22.2726Z" fill="white"/>
<path id="Vector_2" d="M9.59424 22.263C9.59424 19.5976 9.59424 16.9805 9.59424 14.3005C9.65713 14.4021 9.69099 14.4553 9.71517 14.5085C10.5859 16.3032 11.4567 18.0931 12.3129 19.8926C12.3903 20.0571 12.4338 20.2554 12.4387 20.4393C12.4532 20.9666 12.4532 21.4938 12.4387 22.0211C12.4387 22.1034 12.3468 22.2533 12.2935 22.2533C11.4035 22.2678 10.5134 22.263 9.59424 22.263Z" fill="white"/>
<path id="Vector_3" d="M16.8597 10.0291C16.8355 10.0919 16.821 10.1452 16.7968 10.1935C16.3469 11.0256 15.897 11.8625 15.4375 12.6897C15.3891 12.7767 15.2537 12.8638 15.1569 12.8686C14.7651 12.888 14.3684 12.8832 13.9766 12.8735C13.8895 12.8686 13.7637 12.8106 13.7299 12.7429C13.3042 11.877 12.893 11.0014 12.477 10.1258C12.4673 10.1016 12.477 10.0726 12.477 10.0291C13.933 10.0291 15.3843 10.0291 16.8597 10.0291Z" fill="white"/>
</g>
</g>
</svg>
