<svg viewBox="0 0 473 91" fill="none" xmlns="http://www.w3.org/2000/svg">
<circle cx="45" cy="45.5" r="45" fill="url(#paint0_linear_128_9169)"/>
<path d="M58.662 68.7949C56.2589 64.0484 53.9587 59.5104 51.5728 54.796C48.8263 59.4784 46.1314 64.0484 43.385 68.7468C43.1618 68.3459 43.0074 68.0733 42.87 67.7847C37.9608 58.0833 33.0344 48.3819 28.1595 38.6645C27.7475 37.8628 27.284 37.5741 26.3399 37.5902C22.289 37.6383 18.238 37.6062 14.187 37.6222C13.5004 37.6222 13.0884 37.4619 12.7279 36.8686C11.2002 34.2067 9.60389 31.5929 8.02469 28.9471C7.88737 28.7226 7.78437 28.4981 7.62988 28.1935C8.00752 28.1774 8.28216 28.1293 8.57397 28.1293C16.7446 28.1293 24.9152 28.1454 33.0859 28.1133C33.8068 28.1133 34.1501 28.3378 34.4591 28.9311C37.4458 34.8802 40.4669 40.8132 43.4708 46.7624C43.6081 47.035 43.7626 47.3076 43.9686 47.6924C46.3889 43.6194 48.7405 39.6427 51.075 35.682C52.4482 33.3729 53.8043 31.0638 55.1946 28.7707C55.3663 28.4981 55.7611 28.1774 56.0701 28.1774C59.6061 28.1454 63.1593 28.1614 66.6953 28.1614C66.7811 28.1614 66.867 28.2095 67.0386 28.2576C66.867 28.5943 66.7125 28.899 66.5408 29.2037C63.7257 34.0303 60.8935 38.8409 58.0441 43.6515C57.7007 44.2288 57.5978 44.6938 57.9754 45.3031C58.4217 46.0087 58.7478 46.7784 59.177 47.6443C59.3658 47.3717 59.5203 47.1953 59.6404 46.9868C63.1936 40.9896 66.764 34.9924 70.3 28.9792C70.6605 28.3699 71.0209 28.1293 71.7934 28.1293C75.2607 28.1774 78.7453 28.1454 82.4358 28.1454C74.5055 41.7273 66.6438 55.1649 58.662 68.7949Z" fill="white"/>
<path d="M26.7695 68.7628C26.7695 59.9273 26.7695 51.2522 26.7695 42.3687C26.9927 42.7054 27.1128 42.8818 27.1987 43.0582C30.2884 49.0073 33.3781 54.9403 36.4164 60.9055C36.691 61.4507 36.8455 62.1081 36.8627 62.7175C36.9142 64.4653 36.9142 66.2132 36.8627 67.961C36.8627 68.2336 36.5365 68.7307 36.3477 68.7307C33.1893 68.7788 30.0309 68.7628 26.7695 68.7628Z" fill="white"/>
<path d="M52.5513 28.21C52.4655 28.4184 52.414 28.5948 52.3281 28.7552C50.7318 31.5132 49.1354 34.2873 47.5047 37.0294C47.3331 37.318 46.8524 37.6066 46.5091 37.6227C45.1188 37.6868 43.7112 37.6708 42.3208 37.6387C42.0119 37.6227 41.5656 37.4303 41.4454 37.2058C39.9349 34.3354 38.4758 31.4331 36.9996 28.5307C36.9653 28.4505 36.9996 28.3543 36.9996 28.21C42.1664 28.21 47.3159 28.21 52.5513 28.21Z" fill="white"/>
<path d="M445.767 34.9249L457.006 34.0249V40.8499C458.612 38.6999 460.592 36.9749 462.948 35.6749C465.356 34.3249 468.407 33.6499 472.1 33.6499V43.9249C470.173 43.9249 467.631 44.2499 464.473 44.8999C461.369 45.4999 458.88 46.5749 457.006 48.1249V75.7999L445.767 76.6999V34.9249Z" fill="url(#paint1_linear_128_9169)"/>
<path d="M420.297 77.225C414.891 77.225 410.717 75.225 407.773 71.225C404.883 67.225 403.438 61.9 403.438 55.25C403.438 48.65 404.883 43.375 407.773 39.425C410.663 35.475 414.838 33.5 420.297 33.5C425.703 33.5 429.878 35.475 432.822 39.425C435.819 43.375 437.318 48.65 437.318 55.25C437.318 61.85 435.819 67.175 432.822 71.225C429.878 75.225 425.703 77.225 420.297 77.225ZM420.297 69.425C422.706 69.425 424.258 68.05 424.954 65.3C425.65 62.55 425.997 59.175 425.997 55.175C425.997 51.175 425.65 47.8 424.954 45.05C424.258 42.3 422.706 40.925 420.297 40.925C417.889 40.925 416.363 42.225 415.721 44.825C415.079 47.425 414.758 50.6 414.758 54.35C414.758 58.95 415.079 62.625 415.721 65.375C416.363 68.075 417.889 69.425 420.297 69.425Z" fill="url(#paint2_linear_128_9169)"/>
<path d="M382.068 77.225C377.625 77.225 374.039 76.3 371.31 74.45C368.58 72.55 366.814 69.925 366.011 66.575L374.762 63.875C374.976 64.825 375.377 65.675 375.966 66.425C377.197 68.075 378.99 68.9 381.345 68.9C382.683 68.9 383.968 68.625 385.199 68.075C386.43 67.525 387.045 66.675 387.045 65.525C387.045 63.975 385.895 62.775 383.593 61.925L374.119 58.325C371.604 57.325 369.677 55.825 368.339 53.825C367.001 51.825 366.332 49.375 366.332 46.475C366.332 43.775 367.028 41.45 368.419 39.5C369.864 37.55 371.738 36.075 374.039 35.075C376.394 34.025 378.91 33.5 381.586 33.5C384.958 33.5 388.062 34.425 390.899 36.275C393.736 38.075 395.636 40.55 396.599 43.7L387.286 46.4C387.072 45.55 386.697 44.7 386.162 43.85C384.985 42.15 383.486 41.3 381.666 41.3C380.328 41.3 379.177 41.6 378.214 42.2C377.251 42.75 376.769 43.575 376.769 44.675C376.769 45.975 378.08 47.175 380.703 48.275L388.731 51.35C391.568 52.6 393.789 54.175 395.395 56.075C397.001 57.975 397.803 60.525 397.803 63.725C397.803 66.625 397.054 69.1 395.556 71.15C394.057 73.15 392.103 74.675 389.695 75.725C387.286 76.725 384.744 77.225 382.068 77.225Z" fill="url(#paint3_linear_128_9169)"/>
<path d="M324.5 34.925L335.739 34.025V39.425C338.041 37.525 340.289 36.075 342.483 35.075C344.731 34.025 346.792 33.5 348.665 33.5C351.502 33.5 353.803 34.475 355.57 36.425C357.389 38.325 358.299 40.9 358.299 44.15V75.8L347.06 76.7V48.125C347.06 44.375 345.695 42.5 342.965 42.5C342.055 42.5 341.038 42.75 339.914 43.25C338.844 43.75 337.452 44.475 335.739 45.425V75.8L324.5 76.7V34.925Z" fill="url(#paint4_linear_128_9169)"/>
<path d="M300.276 77.225C294.924 77.225 290.83 75.25 287.993 71.3C285.156 67.3 283.738 62 283.738 55.4C283.738 48.7 285.183 43.375 288.073 39.425C290.963 35.475 295.165 33.5 300.678 33.5C305.923 33.5 309.937 35.475 312.721 39.425C315.504 43.375 316.895 48.7 316.895 55.4C316.895 55.8 316.815 56.1 316.654 56.3C316.494 56.45 316.414 56.55 316.414 56.6H294.978C294.978 59.85 295.433 62.825 296.342 65.525C297.252 68.175 298.644 69.5 300.517 69.5C302.605 69.5 304.157 68.375 305.174 66.125C306.191 63.875 306.726 62.7 306.779 62.6L315.29 65.6C314.166 69.2 312.373 72.05 309.911 74.15C307.449 76.2 304.237 77.225 300.276 77.225ZM305.816 50.525C305.816 47.525 305.388 45.15 304.532 43.4C303.675 41.65 302.337 40.775 300.517 40.775C299.607 40.775 298.724 41.2 297.868 42.05C297.012 42.9 296.316 44.075 295.78 45.575C295.245 47.075 294.978 48.725 294.978 50.525H305.816Z" fill="url(#paint5_linear_128_9169)"/>
<path d="M271.588 77.0756C267.948 77.0756 264.871 76.2256 262.355 74.5256C259.839 72.7756 258.582 69.7006 258.582 65.3006V41.9756H252.319L252.801 34.0256H258.903L260.027 24.8756L269.821 23.6006V34.0256H279.134L278.653 41.9756H269.902V65.2256C269.902 66.7256 270.303 67.8006 271.106 68.4506C271.909 69.1006 273.086 69.4256 274.638 69.4256C275.495 69.4256 276.94 69.2756 278.974 68.9756V76.2506C278.76 76.3006 277.903 76.4506 276.405 76.7006C274.96 76.9506 273.354 77.0756 271.588 77.0756Z" fill="url(#paint6_linear_128_9169)"/>
<path d="M234.359 28.625V17.75L245.598 17V28.175L234.359 28.625ZM234.278 76.7V34.925L245.518 34.025V75.8L234.278 76.7Z" fill="url(#paint7_linear_128_9169)"/>
<path d="M217.419 77.225L208.266 56.225L204.573 60.8V76.25H193.333V21.35L204.573 20V47.9L216.054 34.025H228.257L215.572 49.25L227.374 74.075L217.419 77.225Z" fill="url(#paint8_linear_128_9169)"/>
<path d="M171.521 28.625V17.75L182.761 17V28.175L171.521 28.625ZM171.44 76.7V34.925L182.68 34.025V75.8L171.44 76.7Z" fill="url(#paint9_linear_128_9169)"/>
<path d="M116.894 76.25L104.61 20.45L117.456 20L123.798 53.675L130.623 20.45L140.257 20L146.599 54.05L154.226 20.45L165.065 20L152.139 76.25H140.498L134.155 41.9L127.652 76.25H116.894Z" fill="url(#paint10_linear_128_9169)"/>
<defs>
<linearGradient id="paint0_linear_128_9169" x1="53.7353" y1="75.1471" x2="72.875" y2="5.95833" gradientUnits="userSpaceOnUse">
<stop/>
<stop offset="0.927091" stop-color="#646464"/>
</linearGradient>
<linearGradient id="paint1_linear_128_9169" x1="461.489" y1="69.3561" x2="474.866" y2="39.7776" gradientUnits="userSpaceOnUse">
<stop/>
<stop offset="0.927091" stop-color="#646464"/>
</linearGradient>
<linearGradient id="paint2_linear_128_9169" x1="423.666" y1="69.766" x2="435.125" y2="37.6704" gradientUnits="userSpaceOnUse">
<stop/>
<stop offset="0.927091" stop-color="#646464"/>
</linearGradient>
<linearGradient id="paint3_linear_128_9169" x1="384.993" y1="69.766" x2="397.019" y2="38.1551" gradientUnits="userSpaceOnUse">
<stop/>
<stop offset="0.927091" stop-color="#646464"/>
</linearGradient>
<linearGradient id="paint4_linear_128_9169" x1="344.68" y1="69.3306" x2="355.916" y2="37.5513" gradientUnits="userSpaceOnUse">
<stop/>
<stop offset="0.927091" stop-color="#646464"/>
</linearGradient>
<linearGradient id="paint5_linear_128_9169" x1="303.535" y1="69.766" x2="315.185" y2="37.8295" gradientUnits="userSpaceOnUse">
<stop/>
<stop offset="0.927091" stop-color="#646464"/>
</linearGradient>
<linearGradient id="paint6_linear_128_9169" x1="268.33" y1="67.9534" x2="287.047" y2="34.0237" gradientUnits="userSpaceOnUse">
<stop/>
<stop offset="0.927091" stop-color="#646464"/>
</linearGradient>
<linearGradient id="paint7_linear_128_9169" x1="241.037" y1="66.5159" x2="264.078" y2="50.7225" gradientUnits="userSpaceOnUse">
<stop/>
<stop offset="0.927091" stop-color="#646464"/>
</linearGradient>
<linearGradient id="paint8_linear_128_9169" x1="214.185" y1="67.4631" x2="231.993" y2="28.176" gradientUnits="userSpaceOnUse">
<stop/>
<stop offset="0.927091" stop-color="#646464"/>
</linearGradient>
<linearGradient id="paint9_linear_128_9169" x1="178.199" y1="66.5159" x2="201.24" y2="50.7225" gradientUnits="userSpaceOnUse">
<stop/>
<stop offset="0.927091" stop-color="#646464"/>
</linearGradient>
<linearGradient id="paint10_linear_128_9169" x1="140.705" y1="66.6544" x2="151.943" y2="22.9948" gradientUnits="userSpaceOnUse">
<stop/>
<stop offset="0.927091" stop-color="#646464"/>
</linearGradient>
</defs>
</svg>
