<svg viewBox="0 0 585 80" fill="none" xmlns="http://www.w3.org/2000/svg">
<path fill-rule="evenodd" clip-rule="evenodd" d="M88.988 39L96.4863 8.4H81.1863L75.1446 39H88.988ZM86.7826 48H73.3676L70.3863 63.1L66.494 48H53.7941L61.7863 79H79.1863L86.7826 48ZM51.4738 39L48.5863 27.8L45.6769 39H32.9545L40.7863 8.4H56.2863L64.174 39H51.4738ZM30.651 48H43.339L35.2863 79H17.9863L10.39 48H23.8049L26.7863 63.1L30.651 48ZM22.028 39L15.9863 8.4H0.686279L8.18458 39H22.028ZM107.132 48H121.232V79H107.132V48ZM121.232 39H107.132V23.6H121.232V39ZM134.988 48V79H149.088V54.8L167.388 79H184.588L160.688 51.2L163.389 48H134.988ZM192.433 48V79H206.533V48H192.433ZM206.533 39H192.433V23.6H206.533V39ZM257.466 48V79H271.566V48H257.466ZM271.566 39H257.466V19.6H238.066V8.4H291.066V19.6H271.566V39ZM297.16 48C297.072 49.0709 297.028 50.1709 297.028 51.3C297.028 57.1 298.194 62.1333 300.528 66.4C302.861 70.6667 306.128 73.9667 310.328 76.3C314.528 78.5667 319.328 79.7 324.728 79.7C329.328 79.7 333.494 78.8333 337.228 77.1C341.028 75.3667 344.128 72.9667 346.528 69.9C348.928 66.8333 350.494 63.3667 351.228 59.5H336.328C335.728 62.2333 334.328 64.4 332.128 66C329.994 67.6 327.294 68.4 324.028 68.4C320.361 68.4 317.294 67.2333 314.828 64.9C312.361 62.5667 311.028 58.9333 310.828 54H351.428C351.761 52.2 351.928 50.6 351.928 49.2C351.928 48.7964 351.92 48.3964 351.906 48H297.16ZM350.112 39C349.666 37.8589 349.138 36.7589 348.528 35.7C346.328 31.7 343.161 28.5667 339.028 26.3C334.961 24.0333 330.194 22.9 324.728 22.9C319.328 22.9 314.528 24.0333 310.328 26.3C306.128 28.5667 302.861 31.8667 300.528 36.2C300.036 37.0993 299.596 38.0326 299.208 39H313.732C314.153 38.4577 314.618 37.9577 315.128 37.5C317.728 35.1667 320.928 34 324.728 34C328.461 34 331.594 35.1667 334.128 37.5C334.638 37.9577 335.094 38.4577 335.496 39H350.112ZM362.937 48V79H377.037V49.6C377.037 49.0523 377.052 48.519 377.083 48H362.937ZM380.121 39H362.937V23.6H377.037V34.7C378.504 30.9667 380.904 28.0667 384.237 26C387.637 23.8667 391.537 22.8 395.937 22.8C402.337 22.8 407.437 24.9 411.237 29.1C413.619 31.7323 415.254 35.0323 416.143 39H400.222C400.007 38.722 399.778 38.4553 399.537 38.2C397.27 35.7333 394.17 34.5 390.237 34.5C386.237 34.5 383.037 35.8 380.637 38.4C380.458 38.5937 380.286 38.7937 380.121 39ZM402.934 48C402.936 48.1324 402.937 48.2657 402.937 48.4V79H416.937V48H402.934ZM431.531 48C433.379 50.0824 435.55 51.6157 438.043 52.6C440.643 53.5333 444.01 54.4667 448.143 55.4C451.143 56.1333 453.443 56.7667 455.043 57.3C456.71 57.8333 458.077 58.6 459.143 59.6C460.277 60.6 460.843 61.9 460.843 63.5C460.843 65.3667 460.21 66.9 458.943 68.1C457.677 69.2333 455.843 69.8 453.443 69.8C450.11 69.8 447.41 69.0333 445.343 67.5C443.277 65.9 442.077 63.7333 441.743 61H428.243C429.177 67 431.81 71.6333 436.143 74.9C440.477 78.1 446.243 79.7 453.443 79.7C459.71 79.7 464.677 78.2333 468.343 75.3C472.077 72.3667 473.943 68.5333 473.943 63.8C473.943 60 472.977 57 471.043 54.8C469.177 52.5333 466.91 50.9 464.243 49.9C462.638 49.2412 460.727 48.6079 458.511 48H431.531ZM459.24 39C458.59 37.5076 457.658 36.2409 456.443 35.2C454.577 33.6 452.143 32.8 449.143 32.8C446.743 32.8 444.877 33.3667 443.543 34.5C442.233 35.6137 441.567 37.1137 441.544 39H428.744C428.769 34.2458 430.602 30.3791 434.243 27.4C437.91 24.4 442.977 22.9 449.443 22.9C456.177 22.9 461.577 24.6 465.643 28C469.068 30.863 471.405 34.5297 472.655 39H459.24ZM482.785 48C482.692 49.0709 482.645 50.1709 482.645 51.3C482.645 57.1 483.878 62.1333 486.345 66.4C488.812 70.6667 492.178 73.9667 496.445 76.3C500.778 78.5667 505.645 79.7 511.045 79.7C516.445 79.7 521.278 78.5667 525.545 76.3C529.878 73.9667 533.278 70.6667 535.745 66.4C538.212 62.1333 539.445 57.1 539.445 51.3C539.445 50.1709 539.398 49.0709 539.305 48H524.945C525.078 49.0384 525.145 50.1384 525.145 51.3C525.145 56.5667 523.778 60.6 521.045 63.4C518.312 66.1333 514.978 67.5 511.045 67.5C507.112 67.5 503.778 66.1333 501.045 63.4C498.312 60.6 496.945 56.5667 496.945 51.3C496.945 50.1384 497.011 49.0384 497.144 48H482.785ZM501.346 39H484.95C485.36 38.0326 485.825 37.0993 486.345 36.2C488.812 31.8667 492.178 28.5667 496.445 26.3C500.778 24.0333 505.645 22.9 511.045 22.9C516.445 22.9 521.278 24.0333 525.545 26.3C529.878 28.5667 533.278 31.8667 535.745 36.2C536.265 37.0993 536.73 38.0326 537.14 39H520.744C518.068 36.4 514.835 35.1 511.045 35.1C507.255 35.1 504.021 36.4 501.346 39ZM550.41 48V79H564.51V52.3C564.51 50.7399 564.646 49.3066 564.919 48H550.41ZM572.626 39H550.41V23.6H564.51V34.2C566.576 30.6667 569.31 27.9 572.71 25.9C576.11 23.8333 579.91 22.8 584.11 22.8V37.9H580.01C577.154 37.9 574.692 38.2667 572.626 39ZM170.987 39H155.102L167.288 23.6H183.988L170.987 39ZM149.088 39H134.988V5H149.088V39ZM107.932 2.2C106.332 3.6 105.532 5.43333 105.532 7.7C105.532 9.9 106.332 11.7333 107.932 13.2C109.532 14.6 111.632 15.3 114.232 15.3C116.832 15.3 118.932 14.6 120.532 13.2C122.132 11.7333 122.932 9.9 122.932 7.7C122.932 5.43333 122.132 3.6 120.532 2.2C118.932 0.733334 116.832 0 114.232 0C111.632 0 109.532 0.733334 107.932 2.2ZM193.233 2.2C191.633 3.6 190.833 5.43333 190.833 7.7C190.833 9.9 191.633 11.7333 193.233 13.2C194.833 14.6 196.933 15.3 199.533 15.3C202.133 15.3 204.233 14.6 205.833 13.2C207.433 11.7333 208.233 9.9 208.233 7.7C208.233 5.43333 207.433 3.6 205.833 2.2C204.233 0.733334 202.133 0 199.533 0C196.933 0 194.833 0.733334 193.233 2.2Z" fill="black"/>
</svg>
