<svg viewBox="0 0 190 36" fill="none" xmlns="http://www.w3.org/2000/svg">
<ellipse cx="19.8699" cy="18" rx="19.2683" ry="18" fill="#F1F1F1"/>
<path d="M25.1516 27.318C24.1904 25.4195 23.2703 23.6043 22.3159 21.7185C21.2174 23.5914 20.1394 25.4195 19.0408 27.2988C18.9516 27.1385 18.8898 27.0294 18.8348 26.914C16.8711 23.0334 14.9006 19.1529 12.9506 15.2659C12.7858 14.9452 12.6004 14.8297 12.2228 14.8362C10.6024 14.8554 8.98201 14.8426 7.36161 14.849C7.08697 14.849 6.92218 14.7848 6.778 14.5475C6.16691 13.4828 5.52837 12.4373 4.89669 11.3789C4.84176 11.2891 4.80056 11.1993 4.73877 11.0775C4.88982 11.0711 4.99968 11.0518 5.1164 11.0518C8.38466 11.0518 11.6529 11.0582 14.9212 11.0454C15.2095 11.0454 15.3469 11.1352 15.4705 11.3725C16.6651 13.7522 17.8736 16.1254 19.0751 18.505C19.1301 18.6141 19.1919 18.7231 19.2743 18.8771C20.2424 17.2479 21.183 15.6572 22.1168 14.0729C22.6661 13.1492 23.2085 12.2256 23.7647 11.3084C23.8333 11.1994 23.9912 11.0711 24.1148 11.0711C25.5293 11.0582 26.9505 11.0647 28.3649 11.0647C28.3993 11.0647 28.4336 11.0839 28.5023 11.1031C28.4336 11.2378 28.3718 11.3597 28.3031 11.4816C27.1771 13.4122 26.0442 15.3365 24.9044 17.2607C24.7671 17.4916 24.7259 17.6776 24.877 17.9214C25.0555 18.2036 25.1859 18.5115 25.3576 18.8578C25.4331 18.7488 25.4949 18.6782 25.543 18.5948C26.9643 16.196 28.3924 13.7971 29.8068 11.3918C29.951 11.148 30.0952 11.0518 30.4042 11.0518C31.7911 11.0711 33.1849 11.0582 34.6611 11.0582C31.489 16.491 28.3443 21.866 25.1516 27.318Z" fill="#1C1C1C"/>
<path d="M12.3945 27.3052C12.3945 23.771 12.3945 20.301 12.3945 16.7476C12.4838 16.8823 12.5319 16.9528 12.5662 17.0234C13.8021 19.403 15.038 21.7762 16.2533 24.1623C16.3631 24.3804 16.4249 24.6433 16.4318 24.8871C16.4524 25.5862 16.4524 26.2854 16.4318 26.9845C16.4318 27.0935 16.3013 27.2924 16.2258 27.2924C14.9624 27.3116 13.6991 27.3052 12.3945 27.3052Z" fill="#1C1C1C"/>
<path d="M22.7072 11.084C22.6729 11.1674 22.6523 11.2379 22.618 11.3021C21.9794 12.4053 21.3409 13.5149 20.6886 14.6118C20.62 14.7272 20.4277 14.8427 20.2904 14.8491C19.7342 14.8747 19.1712 14.8683 18.6151 14.8555C18.4915 14.8491 18.3129 14.7721 18.2649 14.6823C17.6607 13.5342 17.0771 12.3732 16.4866 11.2123C16.4728 11.1802 16.4866 11.1417 16.4866 11.084C18.5533 11.084 20.6131 11.084 22.7072 11.084Z" fill="#1C1C1C"/>
<path d="M178.908 13.77L183.404 13.41V16.14C184.046 15.28 184.839 14.59 185.781 14.07C186.744 13.53 187.964 13.26 189.442 13.26V17.37C188.671 17.37 187.654 17.5 186.391 17.76C185.149 18 184.153 18.43 183.404 19.05V30.12L178.908 30.48V13.77Z" fill="#F1F1F1"/>
<path d="M168.72 30.69C166.558 30.69 164.888 29.89 163.711 28.29C162.555 26.69 161.977 24.56 161.977 21.9C161.977 19.26 162.555 17.15 163.711 15.57C164.867 13.99 166.537 13.2 168.72 13.2C170.883 13.2 172.553 13.99 173.73 15.57C174.929 17.15 175.529 19.26 175.529 21.9C175.529 24.54 174.929 26.67 173.73 28.29C172.553 29.89 170.883 30.69 168.72 30.69ZM168.72 27.57C169.684 27.57 170.305 27.02 170.583 25.92C170.861 24.82 171.001 23.47 171.001 21.87C171.001 20.27 170.861 18.92 170.583 17.82C170.305 16.72 169.684 16.17 168.72 16.17C167.757 16.17 167.147 16.69 166.89 17.73C166.633 18.77 166.505 20.04 166.505 21.54C166.505 23.38 166.633 24.85 166.89 25.95C167.147 27.03 167.757 27.57 168.72 27.57Z" fill="#F1F1F1"/>
<path d="M153.429 30.69C151.652 30.69 150.217 30.32 149.125 29.58C148.034 28.82 147.327 27.77 147.006 26.43L150.506 25.35C150.592 25.73 150.752 26.07 150.988 26.37C151.48 27.03 152.198 27.36 153.14 27.36C153.675 27.36 154.189 27.25 154.681 27.03C155.173 26.81 155.42 26.47 155.42 26.01C155.42 25.39 154.959 24.91 154.039 24.57L150.249 23.13C149.243 22.73 148.472 22.13 147.937 21.33C147.402 20.53 147.134 19.55 147.134 18.39C147.134 17.31 147.413 16.38 147.969 15.6C148.547 14.82 149.297 14.23 150.217 13.83C151.159 13.41 152.165 13.2 153.236 13.2C154.585 13.2 155.826 13.57 156.961 14.31C158.096 15.03 158.856 16.02 159.241 17.28L155.516 18.36C155.43 18.02 155.281 17.68 155.066 17.34C154.595 16.66 153.996 16.32 153.268 16.32C152.733 16.32 152.273 16.44 151.887 16.68C151.502 16.9 151.309 17.23 151.309 17.67C151.309 18.19 151.834 18.67 152.883 19.11L156.094 20.34C157.229 20.84 158.117 21.47 158.76 22.23C159.402 22.99 159.723 24.01 159.723 25.29C159.723 26.45 159.423 27.44 158.824 28.26C158.224 29.06 157.443 29.67 156.479 30.09C155.516 30.49 154.499 30.69 153.429 30.69Z" fill="#F1F1F1"/>
<path d="M130.401 13.77L134.897 13.41V15.57C135.818 14.81 136.717 14.23 137.595 13.83C138.494 13.41 139.318 13.2 140.068 13.2C141.202 13.2 142.123 13.59 142.829 14.37C143.557 15.13 143.921 16.16 143.921 17.46V30.12L139.425 30.48V19.05C139.425 17.55 138.879 16.8 137.788 16.8C137.424 16.8 137.017 16.9 136.567 17.1C136.139 17.3 135.582 17.59 134.897 17.97V30.12L130.401 30.48V13.77Z" fill="#F1F1F1"/>
<path d="M120.712 30.69C118.571 30.69 116.933 29.9 115.799 28.32C114.664 26.72 114.097 24.6 114.097 21.96C114.097 19.28 114.675 17.15 115.831 15.57C116.987 13.99 118.668 13.2 120.873 13.2C122.971 13.2 124.577 13.99 125.69 15.57C126.803 17.15 127.36 19.28 127.36 21.96C127.36 22.12 127.328 22.24 127.263 22.32C127.199 22.38 127.167 22.42 127.167 22.44H118.593C118.593 23.74 118.775 24.93 119.139 26.01C119.503 27.07 120.059 27.6 120.808 27.6C121.643 27.6 122.264 27.15 122.671 26.25C123.078 25.35 123.292 24.88 123.313 24.84L126.717 26.04C126.268 27.48 125.551 28.62 124.566 29.46C123.581 30.28 122.296 30.69 120.712 30.69ZM122.928 20.01C122.928 18.81 122.757 17.86 122.414 17.16C122.072 16.46 121.536 16.11 120.808 16.11C120.445 16.11 120.091 16.28 119.749 16.62C119.406 16.96 119.128 17.43 118.914 18.03C118.7 18.63 118.593 19.29 118.593 20.01H122.928Z" fill="#F1F1F1"/>
<path d="M109.237 30.63C107.781 30.63 106.55 30.29 105.544 29.61C104.537 28.91 104.034 27.68 104.034 25.92V16.59H101.529L101.722 13.41H104.163L104.612 9.74999L108.53 9.23999V13.41H112.255L112.063 16.59H108.562V25.89C108.562 26.49 108.723 26.92 109.044 27.18C109.365 27.44 109.836 27.57 110.457 27.57C110.799 27.57 111.378 27.51 112.191 27.39V30.3C112.105 30.32 111.763 30.38 111.163 30.48C110.585 30.58 109.943 30.63 109.237 30.63Z" fill="#F1F1F1"/>
<path d="M94.3451 11.25V6.89998L98.841 6.59998V11.07L94.3451 11.25ZM94.313 30.48V13.77L98.8089 13.41V30.12L94.313 30.48Z" fill="#F1F1F1"/>
<path d="M87.5692 30.6901L83.9082 22.2901L82.431 24.1201V30.3001H77.9351V8.34005L82.431 7.80005V18.9601L87.0233 13.41H91.9046L86.8306 19.5001L91.5513 29.4301L87.5692 30.6901Z" fill="#F1F1F1"/>
<path d="M69.2098 11.25V6.89998L73.7058 6.59998V11.07L69.2098 11.25ZM69.1777 30.48V13.77L73.6737 13.41V30.12L69.1777 30.48Z" fill="#F1F1F1"/>
<path d="M47.3592 30.3L42.4458 7.98005L47.584 7.80005L50.121 21.27L52.8507 7.98005L56.7044 7.80005L59.2413 21.4201L62.2922 7.98005L66.6275 7.80005L61.4572 30.3H56.8007L54.2637 16.56L51.6625 30.3H47.3592Z" fill="#F1F1F1"/>
</svg>
